<svg xmlns="http://www.w3.org/2000/svg" viewBox="0 0 30 15" fill="none">
  <path d="M15 8.4375C17.0375 8.4375 18.8375 8.925 20.3 9.5625C21.65 10.1625 22.5 11.5125 22.5 12.975V15H7.5V12.9875C7.5 11.5125 8.35 10.1625 9.7 9.575C11.1625 8.925 12.9625 8.4375 15 8.4375ZM5 8.75C6.375 8.75 7.5 7.625 7.5 6.25C7.5 4.875 6.375 3.75 5 3.75C3.625 3.75 2.5 4.875 2.5 6.25C2.5 7.625 3.625 8.75 5 8.75ZM6.4125 10.125C5.95 10.05 5.4875 10 5 10C3.7625 10 2.5875 10.2625 1.525 10.725C0.6 11.125 0 12.025 0 13.0375V15H5.625V12.9875C5.625 11.95 5.9125 10.975 6.4125 10.125ZM25 8.75C26.375 8.75 27.5 7.625 27.5 6.25C27.5 4.875 26.375 3.75 25 3.75C23.625 3.75 22.5 4.875 22.5 6.25C22.5 7.625 23.625 8.75 25 8.75ZM30 13.0375C30 12.025 29.4 11.125 28.475 10.725C27.4125 10.2625 26.2375 10 25 10C24.5125 10 24.05 10.05 23.5875 10.125C24.0875 10.975 24.375 11.95 24.375 12.9875V15H30V13.0375ZM15 0C17.075 0 18.75 1.675 18.75 3.75C18.75 5.825 17.075 7.5 15 7.5C12.925 7.5 11.25 5.825 11.25 3.75C11.25 1.675 12.925 0 15 0Z" fill="black" fill-opacity="0.8"/>
</svg>